<svg width="30" height="30" viewBox="0 0 30 30" fill="none" xmlns="http://www.w3.org/2000/svg">
<path d="M5.27273 0C4.02955 0 3 1.02955 3 2.27273V22.7273C3 23.9705 4.02955 25 5.27273 25H25.7273C26.9705 25 28 23.9705 28 22.7273V2.27273C28 1.02955 26.9705 0 25.7273 0H5.27273ZM5.27273 2.27273H25.7273V22.7273H19.8318V15.0568H22.7795L23.2057 11.6477H19.833V9.44545C19.833 8.45227 20.0761 7.77727 21.5011 7.77727H23.3477V4.6875C23.033 4.64773 21.9409 4.58068 20.6852 4.58068C18.0659 4.58068 16.2818 6.15682 16.2818 9.09091V11.6477H13.2989V15.0568H16.2807V22.7273H5.27273V2.27273Z" fill="#FDD947" fill-opacity="0.72"/>
</svg>
