<svg width="30" height="30" viewBox="0 0 30 30" fill="none" xmlns="http://www.w3.org/2000/svg">
<path d="M22.5 9C23.3284 9 24 8.32843 24 7.5C24 6.67157 23.3284 6 22.5 6C21.6716 6 21 6.67157 21 7.5C21 8.32843 21.6716 9 22.5 9Z" fill="#FDD947" fill-opacity="0.72"/>
<path d="M15.5 8C14.2144 8 12.9577 8.38122 11.8888 9.09545C10.8199 9.80968 9.98676 10.8248 9.49479 12.0126C9.00282 13.2003 8.87409 14.5072 9.1249 15.7681C9.3757 17.029 9.99477 18.1871 10.9038 19.0962C11.8128 20.0052 12.971 20.6243 14.2319 20.8751C15.4928 21.1259 16.7997 20.9972 17.9874 20.5052C19.1752 20.0132 20.1903 19.1801 20.9046 18.1112C21.6188 17.0423 22 15.7856 22 14.5C22 12.7761 21.3152 11.1228 20.0962 9.90381C18.8772 8.68482 17.2239 8 15.5 8ZM15.5 18.7194C14.6655 18.7194 13.8497 18.4719 13.1558 18.0083C12.4619 17.5447 11.9211 16.8857 11.6018 16.1147C11.2824 15.3437 11.1989 14.4953 11.3617 13.6768C11.5245 12.8583 11.9263 12.1065 12.5164 11.5164C13.1065 10.9263 13.8584 10.5245 14.6768 10.3617C15.4953 10.1989 16.3437 10.2824 17.1147 10.6018C17.8857 10.9211 18.5447 11.4619 19.0083 12.1558C19.4719 12.8497 19.7194 13.6655 19.7194 14.5C19.7194 15.6191 19.2749 16.6923 18.4836 17.4836C17.6923 18.2749 16.6191 18.7194 15.5 18.7194Z" fill="#FDD947" fill-opacity="0.72"/>
<path d="M15.5 4.25208C18.8375 4.25208 19.2333 4.26458 20.551 4.325C21.3436 4.33441 22.1286 4.47993 22.8719 4.75521C23.4111 4.96322 23.9008 5.28182 24.3095 5.6905C24.7182 6.09918 25.0368 6.58889 25.2448 7.12813C25.5201 7.87138 25.6656 8.65642 25.675 9.44896C25.7354 10.7667 25.7479 11.1625 25.7479 14.501C25.7479 17.8396 25.7354 18.2333 25.675 19.551C25.6656 20.3436 25.5201 21.1286 25.2448 21.8719C25.0368 22.4111 24.7182 22.9008 24.3095 23.3095C23.9008 23.7182 23.4111 24.0368 22.8719 24.2448C22.1286 24.5201 21.3436 24.6656 20.551 24.675C19.2333 24.7354 18.8375 24.7479 15.5 24.7479C12.1625 24.7479 11.7667 24.7354 10.449 24.675C9.65642 24.6656 8.87138 24.5201 8.12813 24.2448C7.58889 24.0368 7.09918 23.7182 6.6905 23.3095C6.28182 22.9008 5.96322 22.4111 5.75521 21.8719C5.47993 21.1286 5.33441 20.3436 5.325 19.551C5.26458 18.2333 5.25208 17.8375 5.25208 14.5C5.25208 11.1625 5.26458 10.7667 5.325 9.44896C5.33441 8.65642 5.47993 7.87138 5.75521 7.12813C5.96322 6.58889 6.28182 6.09918 6.6905 5.6905C7.09918 5.28182 7.58889 4.96322 8.12813 4.75521C8.87138 4.47993 9.65642 4.33441 10.449 4.325C11.7667 4.26458 12.1625 4.25208 15.5 4.25208V4.25208ZM15.5 2C12.1052 2 11.6792 2.01458 10.3458 2.075C9.30914 2.09593 8.2835 2.29247 7.3125 2.65625C6.482 2.97739 5.72777 3.46852 5.09814 4.09814C4.46852 4.72777 3.97739 5.482 3.65625 6.3125C3.29235 7.28383 3.09582 8.30983 3.075 9.34688C3.01458 10.6802 3 11.1042 3 14.5C3 17.8958 3.01458 18.3208 3.075 19.6542C3.09593 20.6909 3.29247 21.7165 3.65625 22.6875C3.97739 23.518 4.46852 24.2722 5.09814 24.9019C5.72777 25.5315 6.482 26.0226 7.3125 26.3437C8.28383 26.7076 9.30983 26.9042 10.3469 26.925C11.6802 26.9854 12.1052 27 15.5 27C18.8948 27 19.3208 26.9854 20.6542 26.925C21.6912 26.9042 22.7172 26.7076 23.6885 26.3437C24.519 26.0226 25.2733 25.5315 25.9029 24.9019C26.5325 24.2722 27.0236 23.518 27.3448 22.6875C27.7083 21.7161 27.9045 20.6901 27.925 19.6531C27.9854 18.3198 28 17.8958 28 14.5C28 11.1042 27.9854 10.6792 27.925 9.34583C27.9041 8.30914 27.7075 7.2835 27.3437 6.3125C27.0226 5.482 26.5315 4.72777 25.9019 4.09814C25.2722 3.46852 24.518 2.97739 23.6875 2.65625C22.7161 2.29271 21.6901 2.09652 20.6531 2.07604C19.3198 2.01354 18.8958 2 15.5 2Z" fill="#FDD947" fill-opacity="0.72"/>
</svg>
