<svg width="40" height="40" viewBox="0 0 40 40" fill="none" xmlns="http://www.w3.org/2000/svg">
<path d="M16.6667 28.3333V23.3333H5V16.6666H16.6667V11.6666L25 19.9999L16.6667 28.3333ZM16.6667 3.33325H31.6667C32.5507 3.33325 33.3986 3.68444 34.0237 4.30956C34.6488 4.93468 35 5.78253 35 6.66659V33.3333C35 34.2173 34.6488 35.0652 34.0237 35.6903C33.3986 36.3154 32.5507 36.6666 31.6667 36.6666H16.6667C15.7826 36.6666 14.9348 36.3154 14.3096 35.6903C13.6845 35.0652 13.3333 34.2173 13.3333 33.3333V29.9999H16.6667V33.3333H31.6667V6.66659H16.6667V9.99992H13.3333V6.66659C13.3333 5.78253 13.6845 4.93468 14.3096 4.30956C14.9348 3.68444 15.7826 3.33325 16.6667 3.33325Z" fill="#FDD947" fill-opacity="0.72"/>
</svg>
