<svg width="30" height="30" viewBox="0 0 30 30" fill="none" xmlns="http://www.w3.org/2000/svg">
<path d="M27.1875 4.2188C26.9413 4.01791 26.6099 3.83934 26.1932 3.68309C25.7765 3.52684 25.1421 3.36501 24.2898 3.1976C23.4375 3.03019 22.2207 2.89626 20.6392 2.79581C19.0578 2.69536 17.178 2.64514 15 2.64514C8.4091 2.64514 4.47918 3.10273 3.21024 4.01791C1.71403 5.06702 0.814405 8.15854 0.511375 13.2925C0.473496 13.9621 0.445087 14.5983 0.426147 15.2009C0.445087 15.9599 0.4877 16.7579 0.553988 17.5949C0.620276 18.432 0.738647 19.4588 0.909102 20.6753C1.07956 21.8918 1.36365 22.9855 1.76137 23.9565C2.1591 24.9275 2.63259 25.6139 3.18183 26.0157C4.45077 26.9085 8.39016 27.355 15 27.355C21.894 27.355 25.9565 26.8416 27.1875 25.8148C27.6799 25.3907 28.0966 24.721 28.4375 23.8059C28.7784 22.8907 29.0246 21.8639 29.1761 20.7255C29.3277 19.5871 29.4271 18.5882 29.4744 17.7288C29.5218 16.8695 29.5549 16.0157 29.5739 15.1675C29.5549 14.4085 29.5218 13.6105 29.4744 12.7735C29.4271 11.9364 29.3324 10.9041 29.1904 9.67639C29.0483 8.44871 28.8068 7.33822 28.4659 6.34492C28.125 5.35161 27.6989 4.64291 27.1875 4.2188ZM26.108 24.0737C25.9375 24.2076 25.6155 24.3472 25.1421 24.4922C24.6686 24.6373 23.5369 24.7936 21.7472 24.961C19.9574 25.1284 17.7083 25.2121 15 25.2121C12.3674 25.2121 10.1799 25.134 8.43751 24.9777C6.69509 24.8215 5.58713 24.682 5.11365 24.5592C4.64016 24.4364 4.30872 24.3081 4.11933 24.1742C3.64584 23.8393 3.22444 22.8572 2.85512 21.2277C2.48581 19.5983 2.28221 17.5893 2.24433 15.2009C2.28221 12.7902 2.49054 10.7088 2.86933 8.95653C3.24812 7.20429 3.67425 6.16077 4.14774 5.82595C4.31819 5.71434 4.64016 5.59157 5.11365 5.45764C5.58713 5.32371 6.69509 5.17862 8.43751 5.02237C10.1799 4.86612 12.3674 4.788 15 4.788C17.7083 4.788 19.9574 4.8717 21.7472 5.03911C23.5369 5.20653 24.6686 5.36278 25.1421 5.50786C25.6155 5.65295 25.9375 5.80362 26.108 5.95987C26.3163 6.11612 26.5152 6.45095 26.7046 6.96434C26.894 7.47773 27.0644 8.11947 27.2159 8.88956C27.3674 9.65965 27.4905 10.5916 27.5852 11.6853C27.6799 12.7791 27.7368 13.9398 27.7557 15.1675C27.7368 17.5782 27.5663 19.5704 27.2443 21.144C26.9224 22.7177 26.5436 23.6943 26.108 24.0737ZM20.9091 14.163L12.7273 8.23666C12.4243 8.01345 12.1212 8.00787 11.8182 8.21992C11.5152 8.43197 11.3636 8.75005 11.3636 9.17416V20.9934C11.3636 21.4175 11.5152 21.73 11.8182 21.9309C11.9697 22.0201 12.1212 22.0648 12.2727 22.0648C12.3485 22.0648 12.429 22.0536 12.5142 22.0313C12.5994 22.009 12.6705 21.9643 12.7273 21.8974L20.9091 16.0045C21.2121 15.7813 21.3636 15.4688 21.3636 15.067C21.3447 14.6652 21.1932 14.3639 20.9091 14.163ZM13.1818 19.0849V11.0492L18.6932 15.067L13.1818 19.0849Z" fill="#FDD947" fill-opacity="0.72"/>
</svg>
